<svg width="230" height="24" viewBox="0 0 230 24" fill="none" xmlns="http://www.w3.org/2000/svg">
<path d="M12 0L14.6942 8.2918H23.4127L16.3593 13.4164L19.0534 21.7082L12 16.5836L4.94658 21.7082L7.64074 13.4164L0.587322 8.2918H9.30583L12 0Z" fill="#03045E"/>
<path d="M36 0L38.6942 8.2918H47.4127L40.3593 13.4164L43.0534 21.7082L36 16.5836L28.9466 21.7082L31.6407 13.4164L24.5873 8.2918H33.3058L36 0Z" fill="#03045E"/>
<path d="M60 0L62.6942 8.2918H71.4127L64.3593 13.4164L67.0534 21.7082L60 16.5836L52.9466 21.7082L55.6407 13.4164L48.5873 8.2918H57.3058L60 0Z" fill="#2D2E79"/>
<path d="M84 0L86.6942 8.2918H95.4127L88.3593 13.4164L91.0534 21.7082L84 16.5836L76.9466 21.7082L79.6407 13.4164L72.5873 8.2918H81.3058L84 0Z" fill="#03045E"/>
<path d="M108 0L110.694 8.2918H119.413L112.359 13.4164L115.053 21.7082L108 16.5836L100.947 21.7082L103.641 13.4164L96.5873 8.2918H105.306L108 0Z" fill="#D9D9D9"/>
<path d="M152.086 10.9062V12.6406C152.086 13.5729 152.003 14.3594 151.836 15C151.669 15.6406 151.43 16.1562 151.117 16.5469C150.805 16.9375 150.427 17.2214 149.984 17.3984C149.547 17.5703 149.052 17.6562 148.5 17.6562C148.062 17.6562 147.659 17.6016 147.289 17.4922C146.919 17.3828 146.586 17.2083 146.289 16.9688C145.997 16.724 145.747 16.4062 145.539 16.0156C145.331 15.625 145.172 15.151 145.062 14.5938C144.953 14.0365 144.898 13.3854 144.898 12.6406V10.9062C144.898 9.97396 144.982 9.19271 145.148 8.5625C145.32 7.93229 145.562 7.42708 145.875 7.04688C146.188 6.66146 146.562 6.38542 147 6.21875C147.443 6.05208 147.938 5.96875 148.484 5.96875C148.927 5.96875 149.333 6.02344 149.703 6.13281C150.078 6.23698 150.411 6.40625 150.703 6.64062C150.995 6.86979 151.242 7.17708 151.445 7.5625C151.654 7.94271 151.812 8.40885 151.922 8.96094C152.031 9.51302 152.086 10.1615 152.086 10.9062ZM150.633 12.875V10.6641C150.633 10.1536 150.602 9.70573 150.539 9.32031C150.482 8.92969 150.396 8.59635 150.281 8.32031C150.167 8.04427 150.021 7.82031 149.844 7.64844C149.672 7.47656 149.471 7.35156 149.242 7.27344C149.018 7.1901 148.766 7.14844 148.484 7.14844C148.141 7.14844 147.836 7.21354 147.57 7.34375C147.305 7.46875 147.081 7.66927 146.898 7.94531C146.721 8.22135 146.586 8.58333 146.492 9.03125C146.398 9.47917 146.352 10.0234 146.352 10.6641V12.875C146.352 13.3854 146.38 13.8359 146.438 14.2266C146.5 14.6172 146.591 14.9557 146.711 15.2422C146.831 15.5234 146.977 15.7552 147.148 15.9375C147.32 16.1198 147.518 16.2552 147.742 16.3438C147.971 16.4271 148.224 16.4688 148.5 16.4688C148.854 16.4688 149.164 16.401 149.43 16.2656C149.695 16.1302 149.917 15.9193 150.094 15.6328C150.276 15.3411 150.411 14.9688 150.5 14.5156C150.589 14.0573 150.633 13.5104 150.633 12.875ZM155.383 16.2891H155.531C156.365 16.2891 157.042 16.1719 157.562 15.9375C158.083 15.7031 158.484 15.388 158.766 14.9922C159.047 14.5964 159.24 14.151 159.344 13.6562C159.448 13.1562 159.5 12.6432 159.5 12.1172V10.375C159.5 9.85938 159.44 9.40104 159.32 9C159.206 8.59896 159.044 8.26302 158.836 7.99219C158.633 7.72135 158.401 7.51562 158.141 7.375C157.88 7.23438 157.604 7.16406 157.312 7.16406C156.979 7.16406 156.68 7.23177 156.414 7.36719C156.154 7.4974 155.932 7.68229 155.75 7.92188C155.573 8.16146 155.438 8.44271 155.344 8.76562C155.25 9.08854 155.203 9.4401 155.203 9.82031C155.203 10.1589 155.245 10.487 155.328 10.8047C155.411 11.1224 155.539 11.4089 155.711 11.6641C155.883 11.9193 156.096 12.1224 156.352 12.2734C156.612 12.4193 156.917 12.4922 157.266 12.4922C157.589 12.4922 157.891 12.4297 158.172 12.3047C158.458 12.1745 158.711 12 158.93 11.7812C159.154 11.5573 159.331 11.3047 159.461 11.0234C159.596 10.7422 159.674 10.4479 159.695 10.1406H160.383C160.383 10.5729 160.297 11 160.125 11.4219C159.958 11.8385 159.724 12.2188 159.422 12.5625C159.12 12.9062 158.766 13.1823 158.359 13.3906C157.953 13.5938 157.51 13.6953 157.031 13.6953C156.469 13.6953 155.982 13.5859 155.57 13.3672C155.159 13.1484 154.82 12.8568 154.555 12.4922C154.294 12.1276 154.099 11.7214 153.969 11.2734C153.844 10.8203 153.781 10.362 153.781 9.89844C153.781 9.35677 153.857 8.84896 154.008 8.375C154.159 7.90104 154.383 7.48438 154.68 7.125C154.977 6.76042 155.344 6.47656 155.781 6.27344C156.224 6.07031 156.734 5.96875 157.312 5.96875C157.964 5.96875 158.518 6.09896 158.977 6.35938C159.435 6.61979 159.807 6.96875 160.094 7.40625C160.385 7.84375 160.599 8.33594 160.734 8.88281C160.87 9.42969 160.938 9.99219 160.938 10.5703V11.0938C160.938 11.6823 160.898 12.2812 160.82 12.8906C160.747 13.4948 160.604 14.0729 160.391 14.625C160.182 15.1771 159.878 15.6719 159.477 16.1094C159.076 16.5417 158.552 16.8854 157.906 17.1406C157.266 17.3906 156.474 17.5156 155.531 17.5156H155.383V16.2891ZM168.133 6.125L163.391 18.4766H162.148L166.898 6.125H168.133ZM174.305 6.0625V17.5H172.859V7.86719L169.945 8.92969V7.625L174.078 6.0625H174.305ZM186.008 16.3125V17.5H178.562V16.4609L182.289 12.3125C182.747 11.8021 183.102 11.3698 183.352 11.0156C183.607 10.6562 183.784 10.3359 183.883 10.0547C183.987 9.76823 184.039 9.47656 184.039 9.17969C184.039 8.80469 183.961 8.46615 183.805 8.16406C183.654 7.85677 183.43 7.61198 183.133 7.42969C182.836 7.2474 182.477 7.15625 182.055 7.15625C181.549 7.15625 181.128 7.25521 180.789 7.45312C180.456 7.64583 180.206 7.91667 180.039 8.26562C179.872 8.61458 179.789 9.01562 179.789 9.46875H178.344C178.344 8.82812 178.484 8.24219 178.766 7.71094C179.047 7.17969 179.464 6.75781 180.016 6.44531C180.568 6.1276 181.247 5.96875 182.055 5.96875C182.773 5.96875 183.388 6.09635 183.898 6.35156C184.409 6.60156 184.799 6.95573 185.07 7.41406C185.346 7.86719 185.484 8.39844 185.484 9.00781C185.484 9.34115 185.427 9.67969 185.312 10.0234C185.203 10.362 185.049 10.7005 184.852 11.0391C184.659 11.3776 184.432 11.7109 184.172 12.0391C183.917 12.3672 183.643 12.6901 183.352 13.0078L180.305 16.3125H186.008ZM192.742 6.125L188 18.4766H186.758L191.508 6.125H192.742ZM201.617 16.3125V17.5H194.172V16.4609L197.898 12.3125C198.357 11.8021 198.711 11.3698 198.961 11.0156C199.216 10.6562 199.393 10.3359 199.492 10.0547C199.596 9.76823 199.648 9.47656 199.648 9.17969C199.648 8.80469 199.57 8.46615 199.414 8.16406C199.263 7.85677 199.039 7.61198 198.742 7.42969C198.445 7.2474 198.086 7.15625 197.664 7.15625C197.159 7.15625 196.737 7.25521 196.398 7.45312C196.065 7.64583 195.815 7.91667 195.648 8.26562C195.482 8.61458 195.398 9.01562 195.398 9.46875H193.953C193.953 8.82812 194.094 8.24219 194.375 7.71094C194.656 7.17969 195.073 6.75781 195.625 6.44531C196.177 6.1276 196.857 5.96875 197.664 5.96875C198.383 5.96875 198.997 6.09635 199.508 6.35156C200.018 6.60156 200.409 6.95573 200.68 7.41406C200.956 7.86719 201.094 8.39844 201.094 9.00781C201.094 9.34115 201.036 9.67969 200.922 10.0234C200.812 10.362 200.659 10.7005 200.461 11.0391C200.268 11.3776 200.042 11.7109 199.781 12.0391C199.526 12.3672 199.253 12.6901 198.961 13.0078L195.914 16.3125H201.617ZM210.305 10.9062V12.6406C210.305 13.5729 210.221 14.3594 210.055 15C209.888 15.6406 209.648 16.1562 209.336 16.5469C209.023 16.9375 208.646 17.2214 208.203 17.3984C207.766 17.5703 207.271 17.6562 206.719 17.6562C206.281 17.6562 205.878 17.6016 205.508 17.4922C205.138 17.3828 204.805 17.2083 204.508 16.9688C204.216 16.724 203.966 16.4062 203.758 16.0156C203.549 15.625 203.391 15.151 203.281 14.5938C203.172 14.0365 203.117 13.3854 203.117 12.6406V10.9062C203.117 9.97396 203.201 9.19271 203.367 8.5625C203.539 7.93229 203.781 7.42708 204.094 7.04688C204.406 6.66146 204.781 6.38542 205.219 6.21875C205.661 6.05208 206.156 5.96875 206.703 5.96875C207.146 5.96875 207.552 6.02344 207.922 6.13281C208.297 6.23698 208.63 6.40625 208.922 6.64062C209.214 6.86979 209.461 7.17708 209.664 7.5625C209.872 7.94271 210.031 8.40885 210.141 8.96094C210.25 9.51302 210.305 10.1615 210.305 10.9062ZM208.852 12.875V10.6641C208.852 10.1536 208.82 9.70573 208.758 9.32031C208.701 8.92969 208.615 8.59635 208.5 8.32031C208.385 8.04427 208.24 7.82031 208.062 7.64844C207.891 7.47656 207.69 7.35156 207.461 7.27344C207.237 7.1901 206.984 7.14844 206.703 7.14844C206.359 7.14844 206.055 7.21354 205.789 7.34375C205.523 7.46875 205.299 7.66927 205.117 7.94531C204.94 8.22135 204.805 8.58333 204.711 9.03125C204.617 9.47917 204.57 10.0234 204.57 10.6641V12.875C204.57 13.3854 204.599 13.8359 204.656 14.2266C204.719 14.6172 204.81 14.9557 204.93 15.2422C205.049 15.5234 205.195 15.7552 205.367 15.9375C205.539 16.1198 205.737 16.2552 205.961 16.3438C206.19 16.4271 206.443 16.4688 206.719 16.4688C207.073 16.4688 207.383 16.401 207.648 16.2656C207.914 16.1302 208.135 15.9193 208.312 15.6328C208.495 15.3411 208.63 14.9688 208.719 14.5156C208.807 14.0573 208.852 13.5104 208.852 12.875ZM219.617 16.3125V17.5H212.172V16.4609L215.898 12.3125C216.357 11.8021 216.711 11.3698 216.961 11.0156C217.216 10.6562 217.393 10.3359 217.492 10.0547C217.596 9.76823 217.648 9.47656 217.648 9.17969C217.648 8.80469 217.57 8.46615 217.414 8.16406C217.263 7.85677 217.039 7.61198 216.742 7.42969C216.445 7.2474 216.086 7.15625 215.664 7.15625C215.159 7.15625 214.737 7.25521 214.398 7.45312C214.065 7.64583 213.815 7.91667 213.648 8.26562C213.482 8.61458 213.398 9.01562 213.398 9.46875H211.953C211.953 8.82812 212.094 8.24219 212.375 7.71094C212.656 7.17969 213.073 6.75781 213.625 6.44531C214.177 6.1276 214.857 5.96875 215.664 5.96875C216.383 5.96875 216.997 6.09635 217.508 6.35156C218.018 6.60156 218.409 6.95573 218.68 7.41406C218.956 7.86719 219.094 8.39844 219.094 9.00781C219.094 9.34115 219.036 9.67969 218.922 10.0234C218.812 10.362 218.659 10.7005 218.461 11.0391C218.268 11.3776 218.042 11.7109 217.781 12.0391C217.526 12.3672 217.253 12.6901 216.961 13.0078L213.914 16.3125H219.617ZM228.617 16.3125V17.5H221.172V16.4609L224.898 12.3125C225.357 11.8021 225.711 11.3698 225.961 11.0156C226.216 10.6562 226.393 10.3359 226.492 10.0547C226.596 9.76823 226.648 9.47656 226.648 9.17969C226.648 8.80469 226.57 8.46615 226.414 8.16406C226.263 7.85677 226.039 7.61198 225.742 7.42969C225.445 7.2474 225.086 7.15625 224.664 7.15625C224.159 7.15625 223.737 7.25521 223.398 7.45312C223.065 7.64583 222.815 7.91667 222.648 8.26562C222.482 8.61458 222.398 9.01562 222.398 9.46875H220.953C220.953 8.82812 221.094 8.24219 221.375 7.71094C221.656 7.17969 222.073 6.75781 222.625 6.44531C223.177 6.1276 223.857 5.96875 224.664 5.96875C225.383 5.96875 225.997 6.09635 226.508 6.35156C227.018 6.60156 227.409 6.95573 227.68 7.41406C227.956 7.86719 228.094 8.39844 228.094 9.00781C228.094 9.34115 228.036 9.67969 227.922 10.0234C227.812 10.362 227.659 10.7005 227.461 11.0391C227.268 11.3776 227.042 11.7109 226.781 12.0391C226.526 12.3672 226.253 12.6901 225.961 13.0078L222.914 16.3125H228.617Z" fill="black"/>
</svg>
