<svg width="120" height="24" viewBox="0 0 120 24" fill="none" xmlns="http://www.w3.org/2000/svg">
<path d="M12 0L14.6942 8.2918H23.4127L16.3593 13.4164L19.0534 21.7082L12 16.5836L4.94658 21.7082L7.64074 13.4164L0.587322 8.2918H9.30583L12 0Z" fill="#03045E"/>
<path d="M36 0L38.6942 8.2918H47.4127L40.3593 13.4164L43.0534 21.7082L36 16.5836L28.9466 21.7082L31.6407 13.4164L24.5873 8.2918H33.3058L36 0Z" fill="#03045E"/>
<path d="M60 0L62.6942 8.2918H71.4127L64.3593 13.4164L67.0534 21.7082L60 16.5836L52.9466 21.7082L55.6407 13.4164L48.5873 8.2918H57.3058L60 0Z" fill="#03045E"/>
<path d="M84 0L86.6942 8.2918H95.4127L88.3593 13.4164L91.0534 21.7082L84 16.5836L76.9466 21.7082L79.6407 13.4164L72.5873 8.2918H81.3058L84 0Z" fill="#D9D9D9"/>
<path d="M108 0L110.694 8.2918H119.413L112.359 13.4164L115.053 21.7082L108 16.5836L100.947 21.7082L103.641 13.4164L96.5873 8.2918H105.306L108 0Z" fill="#D9D9D9"/>
</svg>
