<svg width="34" height="48" viewBox="0 0 34 48" fill="none" xmlns="http://www.w3.org/2000/svg">
<path d="M33.2302 21.8451L2.10061 0.207742C1.85663 0.0381183 1.58257 -0.0298463 1.31145 0.0120321C1.04032 0.0539106 0.783683 0.203846 0.572434 0.443786C0.370692 0.678832 0.220113 0.987448 0.137624 1.33494C0.0551345 1.68243 0.0440063 2.05502 0.10549 2.41082L3.85519 21.6288H19.8586V25.5628H3.85519L0.048891 44.7217C-0.00880276 45.0189 -0.0155374 45.3307 0.0292288 45.6321C0.073995 45.9335 0.169013 46.2161 0.306642 46.4572C0.444272 46.6982 0.620672 46.891 0.82166 47.0201C1.02265 47.1491 1.24261 47.2108 1.46387 47.2002C1.68538 47.1984 1.90347 47.1242 2.10061 46.9838L33.2302 25.3464C33.462 25.1814 33.6565 24.9306 33.7923 24.6217C33.9281 24.3128 34 23.9578 34 23.5958C34 23.2338 33.9281 22.8788 33.7923 22.5699C33.6565 22.261 33.462 22.0102 33.2302 21.8451Z" fill="#02033F"/>
</svg>
