<svg width="58" height="59" viewBox="0 0 58 59" fill="none" xmlns="http://www.w3.org/2000/svg">
<path d="M29 0.32782C21.3087 0.32782 13.9325 3.39628 8.4939 8.85816C3.05535 14.3201 0 21.728 0 29.4522C0 37.1765 3.05535 44.5844 8.4939 50.0463C13.9325 55.5082 21.3087 58.5767 29 58.5767C36.6913 58.5767 44.0675 55.5082 49.5061 50.0463C54.9447 44.5844 58 37.1765 58 29.4522C58 21.728 54.9447 14.3201 49.5061 8.85816C44.0675 3.39628 36.6913 0.32782 29 0.32782V0.32782ZM7.395 16.0768C8.57313 20.9151 16.5735 25.3238 20.8691 27.6902C22.6091 28.6477 23.7438 29.2702 23.5625 29.4522C23.2725 29.7435 22.9753 30.0274 22.6853 30.3041C21.1773 31.7458 19.8324 33.0309 19.9375 34.9131C20.0644 37.2212 22.1778 37.9129 24.3383 38.6155C26.4299 39.2999 28.5723 39.9989 29 42.1942C29.2973 43.7123 28.7281 45.791 28.2025 47.7278C27.4231 50.5747 26.7308 53.1158 29 53.1158C34.4375 51.2955 42.7678 41.517 43.5 34.9131C44.0003 30.3879 36.25 27.632 30.8125 25.8117C29.0798 25.2292 28.0756 26.1066 27.2238 26.8456C26.6003 27.3917 26.0565 27.8613 25.375 27.632C23.7619 27.0932 16.3125 20.3509 19.9375 18.5306C22.765 17.1108 23.3885 17.908 24.3854 19.1932C24.6681 19.5536 24.9763 19.9504 25.375 20.3509C27.5826 21.4576 27.7748 19.8703 27.9959 18.0464C28.1373 16.8741 28.2895 15.6036 29 14.89C30.5733 13.31 33.5856 12.0104 36.3515 10.8126C38.9325 9.6986 41.2996 8.67561 42.0754 7.60892C46.3863 10.2124 49.8295 14.0439 51.9676 18.6168C54.1056 23.1897 54.8421 28.2977 54.0834 33.2918C53.3247 38.286 51.105 42.941 47.7065 46.6656C44.3079 50.3901 39.8837 53.0162 34.9958 54.2102C30.1079 55.4041 24.977 55.1122 20.2547 53.3713C15.5325 51.6305 11.4319 48.5194 8.47403 44.4331C5.51611 40.3468 3.83428 35.4698 3.64215 30.4215C3.45003 25.3733 4.75629 20.3816 7.395 16.0805V16.0768Z" fill="#497078"/>
</svg>
