<?xml version="1.0" encoding="UTF-8" standalone="no"?>
<svg
   xmlns:dc="http://purl.org/dc/elements/1.1/"
   xmlns:cc="http://creativecommons.org/ns#"
   xmlns:rdf="http://www.w3.org/1999/02/22-rdf-syntax-ns#"
   xmlns:svg="http://www.w3.org/2000/svg"
   xmlns="http://www.w3.org/2000/svg"
   viewBox="0 0 721.33331 262.66666"
   height="262.66666"
   width="721.33331"
   xml:space="preserve"
   id="svg2"
   version="1.1"><metadata
     id="metadata8"><rdf:RDF><cc:Work
         rdf:about=""><dc:format>image/svg+xml</dc:format><dc:type
           rdf:resource="http://purl.org/dc/dcmitype/StillImage" /></cc:Work></rdf:RDF></metadata><defs
     id="defs6" /><g
     transform="matrix(1.3333333,0,0,-1.3333333,0,262.66667)"
     id="g10"><g
       transform="scale(0.1)"
       id="g12"><path
         id="path14"
         style="fill:#b61657;fill-opacity:1;fill-rule:nonzero;stroke:none"
         d="m 4742.61,794.105 v 411.145 h 77.51 v -170.16 l 171.38,170.16 h 94.86 L 4897.3,1022.44 5108.83,794.105 H 5008.74 L 4820.12,1004.13 V 794.105 h -77.51" /><path
         id="path16"
         style="fill:#b61657;fill-opacity:1;fill-rule:nonzero;stroke:none"
         d="m 4259.5,794.105 v 427.445 l 302.95,-251.351 c 8.34,-7.097 16.68,-14.664 25.14,-22.719 8.44,-8.054 17.34,-17.16 26.68,-27.32 v 285.09 h 71.74 V 778.094 l -309.18,255.856 c -8.22,6.9 -16.23,14.18 -23.91,21.85 -7.78,7.77 -15.12,15.72 -22.02,24.16 V 794.105 h -71.4" /><path
         id="path18"
         style="fill:#b61657;fill-opacity:1;fill-rule:nonzero;stroke:none"
         d="m 4138.84,794.105 -54.16,105.922 h -188.84 l -55.38,-105.922 h -81.52 l 230.99,427.445 230.66,-427.445 z m -214.42,161.524 h 132.9 l -48.82,93.751 c -2.78,6.04 -5.78,12.94 -8.78,20.71 -3.01,7.77 -6.12,16.39 -9.13,25.97 -2.66,-9.01 -5.34,-17.44 -8.34,-25.2 -2.89,-7.77 -5.89,-14.86 -8.89,-21.48 l -48.94,-93.751" /><path
         id="path20"
         style="fill:#b61657;fill-opacity:1;fill-rule:nonzero;stroke:none"
         d="m 3455.44,794.105 v 411.145 h 120.22 c 34.37,0 59.72,-1.63 76.08,-4.8 16.34,-3.15 30.35,-8.43 41.81,-15.72 14.79,-9.39 26.25,-21.66 34.36,-36.8 8.12,-15.15 12.24,-31.93 12.24,-50.23 0,-21.96 -5.9,-40.27 -17.58,-54.93 -11.78,-14.67 -28.8,-24.93 -51.15,-30.78 27.8,-3.73 49.71,-14.662 65.72,-32.681 15.91,-18.118 23.92,-40.84 23.92,-68.348 0,-16.688 -3.34,-32.496 -10.12,-47.449 -6.67,-15.055 -16.24,-27.805 -28.7,-38.254 -13.01,-11.406 -29.13,-19.453 -48.49,-24.156 -19.35,-4.696 -51.82,-6.997 -97.42,-6.997 z m 75.96,55.887 h 26.69 c 27.14,0 47.49,0.953 60.95,2.778 13.46,1.918 24.02,5.179 31.91,9.875 9.57,5.367 16.91,12.742 22.14,21.855 5.22,9.207 7.79,19.27 7.79,30.387 0,13.035 -3.12,24.539 -9.46,34.222 -6.33,9.778 -15.35,17.352 -27.03,22.719 -7.34,3.262 -15.79,5.563 -25.24,7.094 -9.45,1.437 -22.02,2.207 -37.59,2.207 h -23.47 -26.69 z m 0,181.658 h 29.58 c 36.93,0 63.06,4.31 78.41,13.03 15.24,8.73 22.91,23.39 22.91,44 0,22.44 -7.01,38.25 -21.14,47.36 -14.12,9.11 -40.81,13.61 -80.18,13.61 h -29.58 v -118" /><path
         id="path22"
         style="fill:#b61657;fill-opacity:1;fill-rule:nonzero;stroke:none"
         d="m 2870.8,876.449 59.31,24.637 c 5.65,-18.313 16,-32.305 30.93,-41.891 15.05,-9.687 34.24,-14.472 57.5,-14.472 22.07,0 39.67,5.554 52.69,16.578 13.01,11.027 19.52,25.785 19.52,44.289 0,24.16 -22.29,45.726 -66.87,64.609 -6.3,2.785 -10.99,4.891 -14.41,6.133 -50.35,22.148 -83.95,42.078 -100.69,60.008 -16.76,17.83 -25.18,39.78 -25.18,65.57 0,33.55 12.7,60.68 37.97,81.48 25.29,20.81 58.46,31.16 99.53,31.16 33.7,0 61.97,-5.85 84.69,-17.54 22.73,-11.7 38.41,-28.56 47.15,-50.43 l -58.13,-26.93 c -9.18,12.94 -19.2,22.33 -30.2,28.28 -10.88,6.03 -23.46,9.01 -37.65,9.01 -19.95,0 -35.83,-4.7 -47.57,-14 -11.84,-9.39 -17.71,-21.95 -17.71,-37.67 0,-24.73 25.82,-47.74 77.55,-69.02 3.95,-1.73 7.04,-3.07 9.28,-3.93 45.22,-18.79 76.27,-37.105 93.22,-54.929 16.86,-17.93 25.29,-40.258 25.29,-67.008 0,-38.922 -13.65,-69.879 -40.96,-92.793 -27.31,-22.91 -64.11,-34.414 -110.62,-34.414 -38.93,0 -70.83,8.047 -95.78,24.156 -24.86,16.109 -41.18,39.113 -48.86,69.117" /><path
         id="path24"
         style="fill:#b61657;fill-opacity:1;fill-rule:nonzero;stroke:none"
         d="m 2734.48,794.105 v 411.145 h 74.36 V 794.105 h -74.36" /><path
         id="path26"
         style="fill:#b61657;fill-opacity:1;fill-rule:nonzero;stroke:none"
         d="m 2288.62,794.105 148.37,215.105 -131.2,196.04 h 78.08 l 65.92,-100.56 c 3.63,-5.17 10.14,-16.1 19.74,-32.59 l 4.69,-8.15 c 3.3,5.85 7.04,11.99 11.1,18.59 4.05,6.53 8.63,13.71 13.86,21.58 l 69.66,101.13 h 76.26 l -133.76,-194.88 144.11,-216.265 h -82.24 l -76.48,116.567 -1.28,1.918 c -8.32,14.094 -16,27.223 -23.15,39.586 -3.52,-6.332 -7.35,-12.938 -11.52,-19.742 -4.16,-6.805 -8.64,-13.813 -13.44,-20.903 l -80,-117.426 h -78.72" /><path
         id="path28"
         style="fill:#b61657;fill-opacity:1;fill-rule:nonzero;stroke:none"
         d="m 2193.36,794.105 -51.94,105.922 h -181.13 l -53.12,-105.922 h -78.19 l 221.56,427.445 221.22,-427.445 z m -205.65,161.524 h 127.47 l -46.83,93.751 c -2.67,6.04 -5.55,12.94 -8.43,20.71 -2.88,7.77 -5.87,16.39 -8.74,25.97 -2.56,-9.01 -5.13,-17.44 -8,-25.2 -2.78,-7.77 -5.66,-14.86 -8.53,-21.48 l -46.94,-93.751" /><path
         id="path30"
         style="fill:#b61657;fill-opacity:1;fill-rule:evenodd;stroke:none"
         d="M 308,419.672 974.578,1558.41 1180.11,1214.01 735.719,425.223 308,419.672" /><path
         id="path32"
         style="fill:#b61657;fill-opacity:1;fill-rule:evenodd;stroke:none"
         d="M 980.133,852.945 1391.19,858.5 1641.16,425.223 H 1218.99 L 980.133,852.945" /><path
         id="path34"
         style="fill:none;stroke:#231f20;stroke-width:2.16000009;stroke-linecap:butt;stroke-linejoin:miter;stroke-miterlimit:2.61313009;stroke-dasharray:none;stroke-opacity:1"
         d="M 8.30469,1967.75 H 5408.53 V 10.3203 H 8.30469 Z" /></g></g></svg>