<?xml version="1.0" standalone="no"?>
<!DOCTYPE svg PUBLIC "-//W3C//DTD SVG 20010904//EN"
 "http://www.w3.org/TR/2001/REC-SVG-20010904/DTD/svg10.dtd">
<svg version="1.0" xmlns="http://www.w3.org/2000/svg"
 width="766.000000pt" height="216.000000pt" viewBox="0 0 766.000000 216.000000"
 preserveAspectRatio="xMidYMid meet">
<metadata>
Created by potrace 1.16, written by Peter Selinger 2001-2019
</metadata>
<g transform="translate(0.000000,216.000000) scale(0.100000,-0.100000)"
fill="#000000" stroke="none">
<path d="M1843 1998 c1 -8 -9 -13 -28 -13 -19 0 -29 -5 -27 -12 1 -9 -10 -13
-33 -13 -19 0 -35 -4 -35 -10 0 -5 -13 -10 -30 -10 -21 0 -30 -5 -30 -16 0
-12 -6 -15 -25 -10 -18 5 -27 2 -31 -9 -4 -9 -19 -15 -40 -15 -19 0 -34 -4
-34 -10 0 -5 -13 -10 -30 -10 -21 0 -30 -5 -30 -16 0 -13 -7 -15 -35 -10 -29
6 -34 4 -29 -9 5 -12 -2 -15 -30 -15 -20 0 -36 -4 -36 -10 0 -5 -13 -10 -29
-10 -17 0 -31 -6 -35 -15 -4 -11 -13 -14 -31 -9 -20 5 -25 2 -25 -11 0 -15 -7
-17 -39 -12 -31 4 -38 2 -34 -9 4 -10 -3 -14 -25 -14 -18 0 -32 -6 -36 -15 -4
-11 -13 -14 -31 -9 -19 5 -25 2 -25 -11 0 -14 -6 -16 -35 -11 -29 6 -34 4 -29
-9 5 -11 -1 -15 -24 -15 -16 0 -35 -6 -42 -14 -6 -8 -18 -12 -26 -9 -8 3 -21
-2 -28 -12 -9 -13 -20 -16 -39 -11 -20 5 -27 3 -27 -9 0 -10 -10 -15 -30 -15
-16 0 -30 -4 -30 -10 0 -5 -16 -10 -35 -10 -23 0 -34 -4 -32 -12 1 -8 -9 -13
-27 -13 -16 0 -31 -6 -33 -12 -3 -7 -18 -13 -34 -13 -16 0 -29 -4 -29 -10 0
-5 -13 -10 -29 -10 -16 0 -31 -6 -35 -15 -4 -11 -14 -13 -36 -8 -23 4 -30 2
-28 -8 2 -9 -8 -15 -29 -17 -18 -2 -33 -7 -33 -13 0 -5 -11 -9 -25 -9 -14 0
-25 -4 -25 -10 0 -5 -9 -10 -20 -10 -11 0 -20 -7 -20 -15 0 -8 -7 -15 -15 -15
-8 0 -15 -9 -15 -19 0 -11 -5 -21 -11 -23 -7 -2 -13 -31 -15 -68 -1 -36 0 -59
3 -52 10 24 23 11 23 -23 0 -25 4 -35 16 -35 12 0 14 -7 9 -30 -5 -24 -3 -30
10 -30 14 0 16 -6 12 -30 -5 -22 -3 -30 8 -30 10 0 15 -11 15 -35 0 -22 5 -35
13 -35 9 0 12 -10 9 -30 -3 -23 0 -30 13 -30 13 0 15 -6 10 -30 -5 -23 -3 -30
9 -30 11 0 16 -9 16 -30 0 -16 5 -30 10 -30 6 0 10 -16 10 -35 0 -25 4 -35 16
-35 12 0 15 -6 10 -24 -4 -15 0 -28 9 -36 8 -7 15 -25 15 -41 0 -16 5 -29 10
-29 6 0 10 -13 10 -29 0 -17 6 -31 16 -35 11 -4 14 -13 10 -31 -5 -19 -2 -25
10 -25 14 0 16 -7 11 -39 -5 -37 -4 -39 17 -32 l21 8 3 487 c2 420 4 487 17
492 8 4 15 14 15 23 0 9 9 23 20 31 11 8 20 21 20 28 0 8 6 12 15 8 8 -3 21 1
29 9 13 13 121 15 766 15 l751 0 8 23 c6 16 5 23 -5 25 -9 2 -14 17 -14 37 0
21 -6 35 -16 39 -12 4 -14 14 -9 36 5 23 3 30 -7 28 -9 -2 -13 7 -12 30 1 21
-3 32 -12 32 -9 0 -14 11 -14 29 0 16 -6 31 -13 34 -9 3 -12 16 -9 36 3 24 0
31 -12 31 -10 0 -16 9 -16 25 0 14 -4 25 -10 25 -5 0 -10 5 -10 11 0 16 -26
39 -44 39 -9 0 -16 7 -16 15 0 12 -13 15 -60 15 -43 0 -59 -4 -57 -12z"/>
<path d="M684 1465 c-10 -8 -27 -15 -36 -15 -10 0 -18 -4 -18 -9 0 -5 -9 -13
-20 -16 -15 -5 -20 -15 -20 -41 0 -20 -4 -33 -10 -29 -15 9 -18 -1087 -2
-1101 6 -6 12 -23 12 -38 0 -16 5 -26 15 -26 8 0 15 -7 15 -15 0 -9 9 -15 24
-15 13 0 26 -4 28 -10 2 -6 327 -10 890 -12 708 -2 884 0 876 10 -8 9 -4 12
16 12 14 0 26 5 26 10 0 6 6 10 13 10 8 0 13 10 13 22 -1 13 4 22 12 20 9 -1
12 119 12 577 0 516 -2 580 -16 585 -8 3 -12 11 -9 17 9 14 -29 49 -54 49 -10
0 -21 7 -25 15 -8 22 -1713 22 -1742 0z m1726 -102 c20 -22 24 -37 22 -70 l-3
-43 -869 0 c-477 0 -875 -3 -884 -6 -13 -5 -16 3 -16 47 1 49 4 56 33 76 l32
21 830 1 830 1 25 -27z m23 -756 c-1 -188 -5 -350 -8 -360 -7 -16 -58 -17
-871 -17 -769 0 -864 2 -864 15 0 9 -7 18 -15 21 -13 5 -15 53 -15 345 l0 339
888 0 887 0 -2 -343z"/>
<path d="M3314 1452 c36 -7 13 -22 -35 -22 -31 0 -48 -4 -44 -10 4 -6 -7 -10
-25 -10 -20 0 -29 -4 -25 -11 4 -6 -2 -13 -14 -16 -12 -3 -21 -9 -21 -14 0 -5
-7 -9 -15 -9 -9 0 -31 -16 -49 -35 -19 -19 -39 -35 -45 -35 -6 0 -11 -6 -11
-13 0 -23 -25 -67 -35 -63 -6 2 -10 -13 -10 -33 0 -21 -5 -35 -11 -34 -8 1
-12 -28 -13 -87 -2 -75 1 -90 13 -90 12 0 16 -10 16 -36 0 -21 4 -33 10 -29 6
4 10 -5 10 -19 0 -16 6 -26 15 -26 8 0 15 -5 15 -10 0 -19 100 -110 121 -110
15 0 19 -4 15 -16 -5 -13 -1 -15 19 -10 18 5 25 2 25 -9 0 -11 11 -15 44 -15
24 0 46 -5 48 -11 2 -7 36 -13 80 -16 59 -3 79 0 91 12 12 11 38 15 102 15 78
0 87 2 92 20 3 11 9 20 14 20 5 0 9 14 9 30 0 21 5 30 16 30 14 0 15 7 10 38
-3 20 -6 49 -6 63 0 18 -6 28 -20 32 -11 3 -17 1 -14 -4 3 -5 -2 -12 -10 -15
-9 -3 -16 -12 -16 -19 0 -7 -7 -16 -16 -19 -9 -4 -14 -13 -10 -21 3 -9 0 -15
-9 -15 -8 0 -15 -7 -15 -15 0 -9 -6 -12 -15 -9 -8 4 -17 -1 -21 -10 -3 -9 -12
-16 -20 -16 -8 0 -14 -4 -14 -10 0 -6 -40 -10 -100 -10 -60 0 -100 4 -100 10
0 6 -9 10 -20 10 -12 0 -20 7 -20 16 0 9 -6 14 -14 11 -13 -5 -46 25 -46 41 0
5 -10 19 -22 32 -13 14 -21 34 -20 47 3 18 0 22 -14 16 -15 -6 -16 -1 -11 34
5 27 2 45 -8 59 -18 24 -20 65 -2 61 9 -1 11 13 9 51 -2 42 0 52 13 52 10 0
15 7 13 18 -2 12 14 35 40 60 23 22 42 45 42 51 0 6 11 11 25 11 14 0 25 4 25
8 0 4 43 8 95 9 52 0 95 -4 95 -8 0 -5 9 -9 21 -9 15 0 19 -5 15 -16 -4 -12
-1 -14 14 -9 14 5 20 2 20 -9 0 -9 5 -16 10 -16 6 0 10 -9 10 -19 0 -10 7 -21
15 -25 8 -3 15 -12 15 -20 0 -14 21 -26 46 -26 11 0 14 20 14 99 l0 99 -35 6
c-20 4 -40 4 -45 1 -6 -4 -13 1 -16 9 -4 11 -19 16 -50 16 -30 0 -44 4 -44 14
0 10 -23 13 -106 12 -59 -1 -99 -2 -90 -4z"/>
<path d="M4173 1452 c37 -7 14 -22 -33 -22 -27 0 -50 -4 -50 -10 0 -5 -11 -10
-25 -10 -16 0 -25 -6 -25 -15 0 -8 -7 -15 -15 -15 -8 0 -15 -4 -15 -10 0 -5
-11 -10 -25 -10 -16 0 -25 -6 -25 -15 0 -8 -3 -15 -7 -15 -18 0 -63 -49 -63
-69 0 -12 -6 -21 -15 -21 -8 0 -15 -9 -15 -20 0 -11 -4 -20 -10 -20 -5 0 -10
-18 -10 -41 0 -23 -7 -47 -15 -55 -11 -11 -13 -27 -8 -57 3 -23 10 -43 15 -45
4 -2 8 -22 8 -44 0 -27 6 -45 18 -54 15 -12 15 -15 2 -24 -13 -9 -12 -10 5 -8
12 2 21 -4 23 -16 4 -20 25 -46 37 -46 8 0 35 -27 35 -35 0 -14 30 -35 49 -35
12 0 21 -6 21 -15 0 -11 7 -14 25 -9 19 5 25 2 25 -10 0 -12 10 -16 41 -16 24
0 47 -7 57 -16 13 -13 31 -15 91 -12 43 3 77 10 79 17 2 7 32 11 81 11 65 0
82 4 102 21 13 11 23 29 21 38 -1 10 4 24 13 31 9 7 15 29 15 51 0 38 13 52
24 27 3 -7 4 3 3 22 -2 30 -6 35 -29 38 -27 3 -68 -26 -68 -49 0 -18 -82 -90
-97 -85 -7 3 -13 -1 -13 -9 0 -12 -19 -15 -100 -15 -60 0 -100 4 -100 10 0 6
-9 10 -20 10 -11 0 -20 7 -20 15 0 8 -7 15 -15 15 -9 0 -24 13 -33 30 -9 16
-23 30 -31 30 -9 0 -11 8 -7 28 3 15 3 21 0 15 -8 -19 -24 -16 -24 5 0 10 -5
23 -11 29 -8 8 -12 53 -12 124 0 76 4 114 12 117 6 2 11 15 11 29 0 18 4 24
14 20 10 -4 13 -1 10 8 -7 17 68 95 90 95 9 0 16 4 16 9 0 5 45 9 100 9 76 -1
100 -4 100 -14 0 -7 6 -11 14 -8 18 7 80 -51 71 -65 -3 -6 -2 -11 4 -11 6 0
13 -11 17 -25 6 -24 15 -29 74 -38 24 -3 25 -1 22 35 -2 21 -8 38 -12 38 -4 0
-10 27 -12 60 -2 33 -7 63 -11 67 -4 4 -26 8 -49 9 -23 1 -44 7 -46 13 -2 6
-21 11 -43 11 -25 0 -39 5 -39 13 0 9 -28 12 -107 12 -58 0 -99 -1 -90 -3z"/>
<path d="M5448 1452 c-27 -2 -48 -7 -48 -13 0 -5 -18 -9 -40 -9 -22 0 -40 -4
-40 -10 0 -5 -16 -10 -35 -10 -19 0 -35 -5 -35 -11 0 -17 -27 -39 -49 -39 -12
0 -21 -4 -21 -10 0 -5 -7 -10 -15 -10 -8 0 -14 -6 -12 -12 1 -7 -4 -12 -10
-11 -8 2 -13 -8 -13 -27 0 -17 -4 -30 -10 -30 -5 0 -10 -9 -10 -20 0 -12 -7
-20 -16 -20 -12 0 -14 -7 -9 -30 5 -22 3 -32 -9 -36 -24 -9 -23 -172 0 -181
12 -4 14 -14 10 -35 -4 -20 -1 -30 9 -34 8 -4 15 -15 15 -25 0 -10 5 -19 10
-19 6 0 10 -11 10 -25 0 -14 6 -25 13 -25 8 0 20 -11 27 -25 7 -14 22 -25 33
-25 12 0 17 -5 14 -13 -4 -10 2 -13 21 -9 21 4 24 2 19 -12 -6 -14 -3 -16 13
-11 13 4 22 1 26 -9 4 -12 20 -16 56 -16 32 0 55 -6 66 -16 13 -14 30 -16 96
-11 44 3 82 10 84 16 2 6 26 11 53 11 37 0 49 4 49 15 0 11 8 13 30 9 22 -5
31 -2 36 10 4 10 18 16 36 16 l31 0 -6 111 c-6 119 0 139 42 139 17 0 21 6 21
35 l0 35 -198 0 -198 0 4 -35 4 -35 54 0 c50 0 70 -11 42 -24 -7 -3 -1 -3 15
0 l27 6 0 -90 c0 -116 -3 -122 -51 -122 -21 0 -39 -4 -39 -10 0 -5 -7 -10 -15
-10 -8 0 -15 5 -15 10 0 6 -20 10 -44 10 -26 0 -48 6 -56 15 -7 8 -16 13 -20
10 -12 -7 -61 47 -56 61 3 8 0 11 -10 7 -9 -3 -14 2 -14 16 0 12 -6 21 -15 21
-9 0 -15 9 -15 25 0 14 -4 25 -10 25 -6 0 -10 27 -10 60 0 33 -4 60 -10 60 -5
0 -10 7 -10 16 0 8 5 12 10 9 6 -4 10 17 10 54 0 34 4 61 10 61 6 0 10 9 10
21 0 32 110 137 143 137 14 0 33 7 42 16 28 28 118 16 100 -14 -5 -8 3 -9 29
-5 24 5 36 3 36 -4 0 -6 7 -11 15 -11 8 0 15 -4 15 -9 0 -5 14 -23 30 -39 17
-17 30 -35 30 -41 0 -20 40 -51 64 -51 13 0 27 -6 29 -12 3 -7 6 44 6 115 1
122 0 127 -20 127 -11 0 -27 -7 -35 -15 -9 -8 -26 -15 -40 -15 -14 0 -27 7
-30 15 -5 11 -21 15 -59 15 -30 0 -55 5 -57 11 -4 12 -63 17 -140 11z"/>
<path d="M5944 1416 c-13 -35 0 -51 45 -54 41 -3 43 -4 39 -32 -4 -24 -2 -27
9 -19 11 10 13 -32 13 -239 0 -220 -2 -254 -17 -281 -16 -27 -23 -31 -64 -31
-42 0 -47 -3 -51 -25 -3 -14 0 -29 7 -35 8 -7 133 -9 356 -8 l344 3 3 70 c4
88 -4 135 -23 135 -8 0 -15 -6 -15 -14 0 -7 -9 -16 -19 -19 -14 -3 -18 -11
-14 -25 3 -14 -1 -22 -16 -27 -12 -3 -21 -13 -21 -22 0 -11 -7 -14 -24 -11
-15 3 -27 0 -30 -8 -4 -11 -30 -14 -100 -14 -89 0 -97 2 -121 26 -25 25 -26
30 -23 127 2 56 6 101 11 100 4 -2 59 -3 123 -3 l116 0 -4 -28 c-4 -26 -2 -28
32 -27 l35 0 3 90 c3 98 -3 155 -18 155 -14 0 -50 -38 -50 -52 -1 -37 -23 -43
-137 -40 l-113 4 0 112 c0 74 4 116 12 124 15 15 224 17 233 2 3 -5 17 -10 31
-10 21 0 24 -4 19 -20 -5 -14 -2 -20 9 -20 10 0 16 -9 16 -26 0 -23 3 -25 33
-22 31 3 32 5 35 51 2 36 -1 49 -13 53 -10 4 -13 13 -9 26 14 46 2 48 -328 48
-259 0 -310 -2 -314 -14z"/>
<path d="M6707 1423 c-4 -3 -7 -21 -7 -38 0 -29 2 -31 30 -27 59 8 60 1 60
-291 0 -225 -2 -266 -15 -271 -8 -3 -12 -12 -9 -21 5 -12 -1 -15 -28 -15 -34
0 -68 -24 -68 -47 0 -6 14 -13 31 -17 52 -10 254 -7 266 5 5 5 8 21 5 35 -3
20 -10 24 -37 24 -37 0 -58 19 -49 44 4 10 0 18 -10 22 -14 5 -16 33 -16 215
0 115 3 209 7 209 10 0 203 -198 203 -209 0 -5 32 -41 70 -80 41 -42 68 -76
64 -83 -4 -7 -3 -8 5 -4 12 8 41 -16 41 -33 0 -6 5 -11 10 -11 13 0 130 -117
130 -130 0 -11 49 -14 74 -4 14 5 16 43 16 321 0 354 -2 343 74 343 46 0 46 0
46 35 l0 35 -165 0 -165 0 0 -35 c0 -37 7 -41 72 -36 14 1 29 -3 33 -9 7 -12
13 -360 6 -360 -3 0 -24 20 -48 45 -23 25 -45 45 -49 45 -7 0 -34 27 -34 35 0
10 -28 35 -39 35 -6 0 -11 3 -11 8 0 11 -46 62 -56 62 -5 0 -18 12 -29 27 -11
15 -28 34 -39 42 -30 26 -40 36 -61 64 -11 15 -25 27 -31 27 -6 0 -17 11 -24
25 -13 24 -16 25 -130 25 -64 0 -120 -3 -123 -7z"/>
</g>
</svg>
