<svg width="75" height="52" viewBox="0 0 75 52" fill="none" xmlns="http://www.w3.org/2000/svg">
<path d="M37.5465 0.857544C40.389 0.857544 43.1151 2.15532 45.1251 4.46538C47.1351 6.77543 48.2642 9.90854 48.2642 13.1755C48.2642 16.4424 47.1351 19.5755 45.1251 21.8855C43.1151 24.1956 40.389 25.4934 37.5465 25.4934C34.7039 25.4934 31.9778 24.1956 29.9679 21.8855C27.9579 19.5755 26.8287 16.4424 26.8287 13.1755C26.8287 9.90854 27.9579 6.77543 29.9679 4.46538C31.9778 2.15532 34.7039 0.857544 37.5465 0.857544ZM16.1109 9.65605C17.8258 9.65605 19.4181 10.184 20.7961 11.1342C20.3368 16.1669 21.6229 21.1645 24.2564 25.071C22.7253 28.4497 19.6631 30.7725 16.1109 30.7725C13.6745 30.7725 11.3378 29.6601 9.61496 27.68C7.89213 25.7 6.92425 23.0145 6.92425 20.2143C6.92425 17.414 7.89213 14.7285 9.61496 12.7485C11.3378 10.7684 13.6745 9.65605 16.1109 9.65605ZM58.982 9.65605C61.4185 9.65605 63.7551 10.7684 65.478 12.7485C67.2008 14.7285 68.1687 17.414 68.1687 20.2143C68.1687 23.0145 67.2008 25.7 65.478 27.68C63.7551 29.6601 61.4185 30.7725 58.982 30.7725C55.4298 30.7725 52.3676 28.4497 50.8365 25.071C53.5064 21.1097 54.7457 16.1184 54.2968 11.1342C55.6748 10.184 57.2672 9.65605 58.982 9.65605ZM17.642 45.7299C17.642 38.4448 26.5531 32.5322 37.5465 32.5322C48.5398 32.5322 57.4509 38.4448 57.4509 45.7299V51.8889H17.642V45.7299ZM0.799805 51.8889V46.6098C0.799805 41.7178 6.5874 37.6001 14.4267 36.4035C12.62 38.7967 11.5176 42.1049 11.5176 45.7299V51.8889H0.799805ZM74.2931 51.8889H63.5754V45.7299C63.5754 42.1049 62.473 38.7967 60.6662 36.4035C68.5055 37.6001 74.2931 41.7178 74.2931 46.6098V51.8889Z" fill="#497078"/>
</svg>
