<?xml version="1.0" encoding="utf-8"?>
<!-- Generator: Adobe Illustrator 20.0.0, SVG Export Plug-In . SVG Version: 6.00 Build 0)  -->
<svg version="1.1" id="Layer_1" xmlns="http://www.w3.org/2000/svg" xmlns:xlink="http://www.w3.org/1999/xlink" x="0px" y="0px"
	 viewBox="0 0 500 90" style="enable-background:new 0 0 500 90;" xml:space="preserve">
<style type="text/css">
	.st0{fill:#7433FF;}
	.st1{fill:#FFFFFF;}
	.st2{fill:#6A737B;}
</style>
<g>
	<g>
		<g>
			<g>
				<circle class="st0" cx="44.4" cy="44.7" r="43.3"/>
			</g>
			<g>
				<path class="st1" d="M31.3,44.6h5.2c0-11.5,9.3-20.8,20.8-20.8v-5.2C43,18.6,31.3,30.2,31.3,44.6z"/>
				<path class="st1" d="M57.3,44.6h-5.2c0,11.5-9.3,20.8-20.8,20.8v5.2C45.6,70.6,57.3,59,57.3,44.6z"/>
			</g>
		</g>
	</g>
	<path class="st2" d="M129.3,39c-1-0.7-2.1-1.2-3.2-1.5c-1.1-0.4-2.3-0.5-3.5-0.5c-0.8,0-1.5,0.1-2.2,0.2c-0.7,0.2-1.2,0.4-1.7,0.7
		s-0.8,0.7-1.1,1.1c-0.3,0.4-0.4,0.9-0.4,1.5c0,0.5,0.1,0.9,0.3,1.3c0.2,0.4,0.6,0.7,1,0.9s1,0.4,1.6,0.6c0.6,0.2,1.3,0.3,2.1,0.4
		l1.7,0.2c1,0.1,1.9,0.3,2.8,0.6s1.7,0.7,2.5,1.2c0.7,0.5,1.3,1.2,1.7,1.9c0.4,0.8,0.7,1.7,0.7,2.8c0,1.2-0.3,2.3-0.8,3.2
		s-1.2,1.7-2.1,2.4c-0.9,0.6-1.9,1.1-3.1,1.5c-1.2,0.3-2.4,0.5-3.7,0.5c-0.8,0-1.7-0.1-2.5-0.2c-0.9-0.1-1.7-0.3-2.6-0.6
		s-1.7-0.6-2.4-1c-0.8-0.4-1.5-0.9-2.1-1.4l2.1-3.1c0.4,0.4,0.9,0.7,1.5,1s1.2,0.6,1.9,0.8c0.7,0.2,1.4,0.4,2.1,0.6
		c0.7,0.1,1.4,0.2,2.1,0.2c0.8,0,1.5-0.1,2.2-0.2c0.7-0.2,1.3-0.4,1.8-0.7s0.9-0.7,1.2-1.1c0.3-0.4,0.4-0.9,0.4-1.5
		c0-0.9-0.5-1.7-1.4-2.1c-0.9-0.5-2.3-0.9-4-1.1l-1.9-0.3c-0.9-0.1-1.8-0.3-2.6-0.6c-0.9-0.3-1.6-0.7-2.3-1.2
		c-0.7-0.5-1.2-1.2-1.6-2s-0.6-1.7-0.6-2.9s0.2-2.3,0.7-3.2s1.2-1.7,2-2.3c0.9-0.6,1.9-1.1,3-1.4c1.1-0.3,2.4-0.5,3.7-0.5
		c1.7,0,3.3,0.2,4.7,0.7s2.7,1.1,3.9,1.9L129.3,39z M161.8,37.4h-7.7v20.1h-3.8V37.4h-7.7v-3.7h19.2V37.4L161.8,37.4z M193.3,57.5
		h-4.2l-2.4-6H176l-2.4,6h-4l9.4-23.8h4.8L193.3,57.5z M177.4,47.8h7.9l-4-10.2L177.4,47.8z M215.2,33.7c2.8,0,4.9,0.6,6.2,1.8
		c1.4,1.2,2.2,2.9,2.2,5.1c0,1-0.2,1.9-0.6,2.8s-0.9,1.6-1.6,2.2c-0.7,0.6-1.5,1.1-2.5,1.4c-1,0.3-2.1,0.5-3.3,0.6l7.8,9.9h-4.8
		l-7.5-10h-2v10h-3.9V33.7H215.2z M209.3,37.4V44h5.8c1.6,0,2.7-0.3,3.5-0.8c0.7-0.6,1.1-1.4,1.1-2.6c0-1.1-0.4-2-1.1-2.5
		c-0.8-0.5-1.9-0.8-3.4-0.8C215.2,37.4,209.3,37.4,209.3,37.4z M254.1,57.5h-16.9V33.7h3.9v20.1h13.2L254.1,57.5L254.1,57.5z
		 M270.4,57.5h-3.9V33.7h3.9V57.5z M305.8,57.5h-3.5L289,40.3v17.2h-3.9V33.7h3.5L302,50.9V33.7h3.9v23.8H305.8z M331.9,33.3
		c1.9,0,3.7,0.3,5.2,1s2.9,1.6,4,2.9l-2.8,2.8c-0.8-0.9-1.7-1.6-2.8-2.1c-1.1-0.5-2.3-0.8-3.7-0.8c-1.2,0-2.4,0.2-3.4,0.6
		c-1,0.4-1.9,1-2.7,1.8c-0.8,0.8-1.3,1.7-1.8,2.8c-0.4,1.1-0.6,2.3-0.6,3.5s0.2,2.5,0.6,3.5c0.4,1.1,1,2,1.8,2.8
		c0.7,0.8,1.6,1.4,2.6,1.8c1,0.4,2.1,0.6,3.3,0.6c2.2,0,3.9-0.5,5.1-1.6c1.3-1.1,2.1-2.6,2.4-4.6h-6.3v-3.6h10.5c0,0.2,0,0.3,0,0.5
		c0,0.1,0,0.3,0,0.5c0,1.7-0.3,3.3-0.8,4.9c-0.5,1.5-1.3,2.9-2.3,4s-2.2,2-3.7,2.7s-3.1,1-4.9,1c-1,0-2-0.1-3.1-0.4
		c-1-0.2-2-0.6-2.9-1.1s-1.8-1.1-2.6-1.8c-0.8-0.7-1.5-1.5-2-2.4c-0.6-0.9-1-1.9-1.3-3.1c-0.3-1.2-0.5-2.4-0.5-3.7
		c0-1.8,0.3-3.5,0.9-5s1.5-2.8,2.6-3.9c1.1-1.1,2.4-2,4-2.6C328.4,33.6,330.1,33.3,331.9,33.3z M383.8,33.7c1.3,0,2.5,0.1,3.6,0.4
		c1.1,0.2,2,0.6,2.8,1.1s1.4,1.2,1.9,2s0.7,1.8,0.7,3c0,0.6-0.1,1.2-0.3,1.8s-0.4,1.1-0.8,1.5c-0.3,0.4-0.7,0.8-1.2,1.1
		s-0.9,0.6-1.5,0.7c0.6,0.2,1.1,0.4,1.6,0.8c0.5,0.3,1,0.7,1.4,1.2s0.7,1,0.9,1.6c0.2,0.6,0.3,1.2,0.3,1.9c0,1.2-0.2,2.2-0.6,3.1
		c-0.4,0.9-1,1.6-1.8,2.1c-0.8,0.6-1.7,1-2.8,1.2c-1.1,0.3-2.3,0.4-3.7,0.4h-9.7V33.7H383.8z M378.5,37.4v6.4h5.2
		c0.7,0,1.3,0,1.9-0.1s1.1-0.2,1.6-0.5c0.5-0.2,0.8-0.6,1.1-1c0.3-0.4,0.4-1,0.4-1.7s-0.1-1.2-0.4-1.7c-0.3-0.4-0.6-0.7-1.1-1
		c-0.5-0.2-1-0.4-1.6-0.4c-0.6-0.1-1.3-0.1-1.9-0.1L378.5,37.4L378.5,37.4z M378.5,47.3v6.5h5.7c0.8,0,1.5,0,2.1-0.1
		s1.2-0.3,1.6-0.5s0.8-0.6,1-1s0.4-1,0.4-1.7s-0.1-1.2-0.4-1.7c-0.2-0.4-0.6-0.8-1-1s-1-0.4-1.6-0.5s-1.3-0.1-2.1-0.1L378.5,47.3
		L378.5,47.3z M427.6,57.5h-4.2l-2.4-6h-10.8l-2.4,6h-4l9.4-23.8h4.8L427.6,57.5z M411.8,47.8h7.9l-4-10.2L411.8,47.8z M460.4,57.5
		h-3.5l-13.3-17.2v17.2h-3.9V33.7h3.5l13.3,17.2V33.7h3.9V57.5z M481.3,47.4H479v10.1h-3.9V33.7h3.9v10h2.4l8.9-10h4.9l-10.7,11.6
		L496,57.5h-5.1L481.3,47.4z"/>
</g>
</svg>
